<?xml version="1.0" standalone="no"?><!DOCTYPE svg PUBLIC "-//W3C//DTD SVG 1.1//EN" "http://www.w3.org/Graphics/SVG/1.1/DTD/svg11.dtd"><svg t="1746023436002" class="icon" viewBox="0 0 1109 1024" version="1.1" xmlns="http://www.w3.org/2000/svg" p-id="1088" xmlns:xlink="http://www.w3.org/1999/xlink" width="216.6015625" height="200"><path d="M170.666667 85.333333h541.525333c23.893333 0 42.666667-18.773333 42.666667-42.666666s-18.773333-42.666667-42.666667-42.666667H170.666667C113.792 0 71.125333 14.208 42.666667 42.666667c-28.458667 28.458667-42.666667 71.125333-42.666667 128v506.666666c0 56.874667 14.208 99.541333 42.666667 128 28.458667 28.458667 71.125333 42.666667 128 42.666667h341.333333V938.666667H278.997333c-23.893333 0-42.666667 18.773333-42.666666 42.666666s18.773333 42.666667 42.666666 42.666667H830.293333c23.893333 0 42.666667-18.773333 42.666667-42.666667s-18.773333-42.666667-42.666667-42.666666H597.333333v-90.666667h341.333334c56.874667 0 99.541333-14.208 128-42.666667 28.458667-28.458667 42.666667-71.125333 42.666666-128V170.666667c0-56.874667-14.208-99.541333-42.666666-128-28.458667-28.458667-71.125333-42.666667-128-42.666667h-68.949334c-23.893333 0-42.666667 18.773333-42.666666 42.666667s18.773333 42.666667 42.666666 42.666666H938.666667c28.458667 0 49.792 7.125333 64 21.333334 14.208 14.208 21.333333 35.541333 21.333333 64v506.666666c0 28.458667-7.125333 49.792-21.333333 64-14.208 14.208-35.541333 21.333333-64 21.333334H170.666667c-28.458667 0-49.792-7.125333-64-21.333334-14.208-14.208-21.333333-35.541333-21.333334-64V170.666667c0-28.458667 7.125333-49.792 21.333334-64 14.208-14.208 35.541333-21.333333 64-21.333334z m108.330666 149.333334H200.192c-23.893333 0-42.666667 18.773333-42.666667 42.666666s18.773333 42.666667 42.666667 42.666667H279.04c23.893333 0 42.666667-18.773333 42.666667-42.666667s-18.773333-42.666667-42.666667-42.666666z m118.144 0h472.576c23.893333 0 42.666667 18.773333 42.666667 42.666666s-18.773333 42.666667-42.666667 42.666667H397.141333c-23.893333 0-42.666667-18.773333-42.666666-42.666667s18.773333-42.666667 42.666666-42.666666zM200.192 469.333333c-23.893333 0-42.666667 18.773333-42.666667 42.666667s18.773333 42.666667 42.666667 42.666667H279.04c23.893333 0 42.666667-18.773333 42.666667-42.666667s-18.773333-42.666667-42.666667-42.666667H200.192z m669.525333 0H397.141333c-23.893333 0-42.666667 18.773333-42.666666 42.666667s18.773333 42.666667 42.666666 42.666667h472.576c23.893333 0 42.666667-18.773333 42.666667-42.666667s-18.773333-42.666667-42.666667-42.666667z" fill="#ffffff" p-id="1089"></path></svg>