<?xml version="1.0" standalone="no"?><!DOCTYPE svg PUBLIC "-//W3C//DTD SVG 1.1//EN" "http://www.w3.org/Graphics/SVG/1.1/DTD/svg11.dtd"><svg t="1746274748434" class="icon" viewBox="0 0 1024 1024" version="1.1" xmlns="http://www.w3.org/2000/svg" p-id="1382" xmlns:xlink="http://www.w3.org/1999/xlink" width="200" height="200"><path d="M290.07 142.99m78.77 0l400.85 0q78.77 0 78.77 78.77l0 469.68q0 78.77-78.77 78.77l-400.85 0q-78.77 0-78.77-78.77l0-469.68q0-78.77 78.77-78.77Z" fill="#F4D7DB" p-id="1383"></path><path d="M648.77 884.77H281.39c-57.22 0-103.77-46.55-103.77-103.77V350.73c0-57.22 46.55-103.77 103.77-103.77h367.38c57.22 0 103.77 46.55 103.77 103.77V781c0 57.22-46.55 103.77-103.77 103.77z m-367.38-587.8c-29.65 0-53.77 24.12-53.77 53.77v430.27c0 29.65 24.12 53.77 53.77 53.77h367.38c29.65 0 53.77-24.12 53.77-53.77V350.73c0-29.65-24.12-53.77-53.77-53.77H281.39z" fill="#333333" p-id="1384"></path><path d="M596.47 438.2H333.69c-13.81 0-25-11.19-25-25s11.19-25 25-25h262.77c13.81 0 25 11.19 25 25s-11.19 25-25 25zM479 556.2H333.69c-13.81 0-25-11.19-25-25s11.19-25 25-25H479c13.81 0 25 11.19 25 25s-11.19 25-25 25z" fill="#333333" p-id="1385"></path></svg>